<svg xmlns="http://www.w3.org/2000/svg" viewBox="0 0 360 360" role="img" aria-labelledby="title desc">
  <title id="title">Student research insights</title>
  <desc id="desc">A research dashboard showing student survey results and engagement insights.</desc>
  <rect width="360" height="360" rx="18" fill="#17202b"/>
  <rect x="22" y="22" width="316" height="316" rx="12" fill="#f3f0e8"/>
  <text x="42" y="62" fill="#182330" font-family="Arial,sans-serif" font-size="13" font-weight="700">MOHAWK STUDENT INSIGHTS</text>
  <text x="42" y="86" fill="#66717c" font-family="Arial,sans-serif" font-size="10">Research summary / 2026</text>
  <rect x="42" y="108" width="276" height="1" fill="#d3d7d8"/>
  <text x="42" y="142" fill="#182330" font-family="Arial,sans-serif" font-size="11" font-weight="700">What students value</text>
  <rect x="42" y="158" width="170" height="12" rx="6" fill="#dce6ed"/><rect x="42" y="158" width="134" height="12" rx="6" fill="#4f7f9b"/>
  <text x="222" y="168" fill="#53606a" font-family="Arial,sans-serif" font-size="10">Events 79%</text>
  <rect x="42" y="182" width="170" height="12" rx="6" fill="#dce6ed"/><rect x="42" y="182" width="112" height="12" rx="6" fill="#8bafbf"/>
  <text x="222" y="192" fill="#53606a" font-family="Arial,sans-serif" font-size="10">Support 66%</text>
  <rect x="42" y="206" width="170" height="12" rx="6" fill="#dce6ed"/><rect x="42" y="206" width="92" height="12" rx="6" fill="#c9b6ff"/>
  <text x="222" y="216" fill="#53606a" font-family="Arial,sans-serif" font-size="10">Community 54%</text>
  <circle cx="91" cy="279" r="40" fill="none" stroke="#d9dfe0" stroke-width="14"/><path d="M91 239a40 40 0 0 1 35 59" fill="none" stroke="#4f7f9b" stroke-width="14"/>
  <text x="77" y="284" fill="#182330" font-family="Arial,sans-serif" font-size="16" font-weight="700">62%</text>
  <text x="153" y="274" fill="#182330" font-family="Arial,sans-serif" font-size="11" font-weight="700">Awareness gap</text>
  <text x="153" y="292" fill="#66717c" font-family="Arial,sans-serif" font-size="10">Opportunity for</text>
  <text x="153" y="307" fill="#66717c" font-family="Arial,sans-serif" font-size="10">clearer outreach</text>
</svg>
